<svg width="128" height="119" xmlns="http://www.w3.org/2000/svg"><g fill="none" fill-rule="evenodd"><path d="M4.332 81.914h109.714V69.598H4.332v12.316zM80.29 100.39h6.083v5.444h-54.37v-5.444h6.081a1.825 1.825 0 0 0 1.83-1.825v-13h38.547v13c0 1.01.82 1.825 1.829 1.825zM4.33 65.947h109.715V3.985H4.332v61.962zM2.504.333A1.825 1.825 0 0 0 .675 2.16v81.58c0 1.01.817 1.826 1.828 1.826h33.754V96.74h-6.082c-1.011 0-1.828.82-1.828 1.826v9.095c0 1.006.817 1.826 1.828 1.826h58.028c1.01 0 1.829-.82 1.829-1.826v-9.095c0-1.006-.82-1.826-1.829-1.826h-6.084V85.565h33.756c1.01 0 1.828-.816 1.828-1.825V2.159c0-1.01-.819-1.826-1.828-1.826H2.503z" fill="#282383"/><path d="M56.686 73.359a1.828 1.828 0 0 0-1.829 1.826 1.828 1.828 0 0 0 3.657 0c0-1.008-.82-1.826-1.828-1.826" fill="#282383"/><g transform="translate(85.943 35.02)"><rect stroke="#282383" stroke-width="2.743" fill="#FAFAFA" x="1.371" y="1.371" width="39.314" height="81.237" rx="4.114"/><path stroke="#282383" stroke-width="1.371" fill="#FAFAFA" d="M.686 9.814h40.686v1H.686zM.686 68.234h40.686v1H.686z"/><ellipse fill="#282383" cx="20.114" cy="74.851" rx="1.829" ry="1.826"/></g><g><path d="M70.552 24.067h-.304l-8.077 3.195-9.142-3.195-8.534 2.89c-.305.152-.61.305-.61.76v22.974c0 .456.305.76.763.76h.304l8.077-3.195 9.142 3.195 8.534-2.89c.305-.152.61-.457.61-.761V24.827c0-.456-.305-.76-.763-.76zm-8.38 22.82l-9.143-3.08V26.348l9.142 3.08v17.458z" fill="#282383"/><path d="M47.543 24.067c-2.038 0-3.657 1.415-3.657 3.195 0 2.373 3.657 5.933 3.657 5.933s3.657-3.56 3.657-5.933c0-1.78-1.62-3.195-3.657-3.195zm0 4.564c-.788 0-1.407-.558-1.407-1.268s.62-1.268 1.407-1.268c.788 0 1.406.558 1.406 1.268s-.618 1.268-1.406 1.268z" fill="#FAFAFA"/></g></g></svg>