<svg width="105" height="132" xmlns="http://www.w3.org/2000/svg"><g stroke="#06D79C" stroke-width="3" fill="none" fill-rule="evenodd"><path d="M66.629 52.9L47.713 71.89 33.797 57.92l-6.958 6.985L47.713 85.86l31.87-31.992-6.96-6.985z"/><path d="M87.064 13.852c-8.263 0-16.476-1.728-23.944-5.302-3.577-1.696-7.237-3.857-10.4-6.55-3.162 2.693-6.822 4.854-10.4 6.55-7.467 3.574-15.68 5.302-23.943 5.302H2v61.79c0 10.821 4.355 21.228 12.103 28.76 11.378 11.036 38.618 25.382 38.618 25.382s27.24-14.346 38.616-25.382c7.75-7.532 12.104-17.939 12.104-28.76v-61.79H87.064z"/><path d="M90.194 36.203V76.16c0 7.22-2.943 14.22-8.07 19.204-7.135 6.922-23.397 16.394-29.402 19.788-6.01-3.398-22.287-12.881-29.412-19.793-5.125-4.982-8.063-11.98-8.063-19.199V27.67h3.13c10.373 0 20.623-2.28 29.643-6.596a68.912 68.912 0 0 0 4.702-2.45 70.839 70.839 0 0 0 4.738 2.47c8.993 4.302 19.23 6.576 29.604 6.576h3.13v8.533z"/></g></svg>