<svg width="424" height="440" xmlns="http://www.w3.org/2000/svg" xmlns:xlink="http://www.w3.org/1999/xlink"><defs><path id="a" d="M0 .178h8.417v8.417H0z"/><path id="c" d="M0 439.022h424.019V0H0z"/></defs><g fill="none" fill-rule="evenodd"><path d="M314.645 381.932s-1.825-16.207 9.119-17.328c10.944-1.121 7.274-18.085 20.626-17.2 13.353.886 10.412-27.942 18.744-28.966 8.33-1.024 15.193-9.084 15.683-15.102.49-6.016 17.153-7.486 8.332 10.648-8.822 18.133 11.27 24.286-6.861 32.726-18.134 8.442 1.96 5.302-10.292 17.899-12.253 12.597-2.09 19.346-17.122 26.237-15.034 6.89-41.307 9.245-41.307 9.245l3.078-18.16z" fill="#98C5ED"/><path fill="#122C64" d="M346.515 386.044l-27.604-.9.02-.066 5.097-16.439.1.031-5.076 16.374 27.466.895z"/><path d="M313.827 386.884l-.026-.103c.14-.036 14.13-3.769 29.776-15.397 9.188-6.829 17.141-15.005 23.636-24.3 8.12-11.618 13.971-25.028 17.395-39.858l.104.024c-3.428 14.844-9.286 28.267-17.414 39.898-6.503 9.303-14.463 17.487-23.66 24.323-15.663 11.64-29.67 15.377-29.81 15.413" fill="#122C64"/><path fill="#122C64" d="M369.304 344.077l-1.9-22.69.104-.009 1.889 22.548 12.577-5.097.039.1zM364.368 363.805h-11.617l.01-.061 3.193-20.371.103.017-3.183 20.31h11.494z"/><g fill="#E4F3F4"><path d="M96.486 308.02H64.665a3.52 3.52 0 1 1 0-7.037h31.82a3.52 3.52 0 0 1 0 7.038M106.779 322.098H58.153a3.52 3.52 0 1 1 0-7.038h48.626a3.519 3.519 0 1 1 0 7.038"/><path d="M88.86 311.541a3.52 3.52 0 0 1 3.52-3.52H70.648a3.52 3.52 0 0 1 0 7.04H92.38a3.52 3.52 0 0 1-3.52-3.52"/></g><g fill="#E4F3F4"><path d="M170.337 251.472h11.229a5.104 5.104 0 0 1 0 10.207h-11.23a5.103 5.103 0 1 1 0-10.207M80.199 210.639h4.593a5.104 5.104 0 0 1 0 10.209h-4.593a5.105 5.105 0 0 1 0-10.21M84.452 231.054h20.883a5.103 5.103 0 1 0 0-10.206h-5.954a5.105 5.105 0 0 1 0-10.21h62.236a5.104 5.104 0 0 1 0 10.21h-8.676a5.104 5.104 0 1 0 0 10.206h18.12a5.104 5.104 0 0 1 0 10.209h-18.12a5.103 5.103 0 1 0 0 10.207l-.02.002h4.733a5.104 5.104 0 0 1 0 10.207H91.597a5.104 5.104 0 1 1 0-10.207h4.773l-.009-.002a5.103 5.103 0 0 0 5.103-5.103 5.102 5.102 0 0 0-5.103-5.104H84.452a5.104 5.104 0 1 1 0-10.21M66.47 240.59H49.416a4.164 4.164 0 0 1 0-8.329H66.47a4.166 4.166 0 0 1 0 8.329"/></g><path d="M420.034 69.662h-16.299a3.984 3.984 0 1 1 0-7.968h4.648a3.983 3.983 0 1 0 0-7.967h-36.02a3.983 3.983 0 0 0 0 7.967h6.773a3.984 3.984 0 0 1 0 7.968h-14.142a3.983 3.983 0 1 0 0 7.967h55.04a3.983 3.983 0 1 0 0-7.967M81.3 60.434H65a3.983 3.983 0 0 1-3.983-3.984A3.983 3.983 0 0 1 65 52.466h4.647a3.984 3.984 0 1 0 0-7.967H33.629a3.983 3.983 0 1 0 0 7.967h6.772a3.984 3.984 0 1 1 0 7.968H26.259a3.983 3.983 0 1 0 0 7.967H81.3a3.983 3.983 0 0 0 0-7.967" fill="#E4F3F4"/><g fill="#E4F3F4"><path d="M255.363 153.512h-11.229a5.104 5.104 0 0 0-5.102 5.104 5.104 5.104 0 0 0 5.102 5.105h11.23a5.105 5.105 0 0 0 0-10.21M345.501 112.68h-4.594a5.103 5.103 0 1 0 0 10.208h4.594a5.104 5.104 0 1 0 0-10.207M341.247 133.097h-20.883a5.104 5.104 0 0 1 0-10.21h5.955a5.104 5.104 0 1 0 0-10.206h-62.237a5.103 5.103 0 1 0 0 10.207h8.678a5.104 5.104 0 0 1 5.102 5.105 5.104 5.104 0 0 1-5.102 5.104h-18.12a5.103 5.103 0 1 0 0 10.207h18.12a5.103 5.103 0 0 1 5.102 5.104 5.103 5.103 0 0 1-5.102 5.104h.018-4.732a5.105 5.105 0 1 0 0 10.209h66.055a5.105 5.105 0 1 0 0-10.21h-4.773.011a5.104 5.104 0 1 1 0-10.207h11.908a5.104 5.104 0 1 0 0-10.207"/></g><path d="M303.596 412.83s-87.42-56.997-75.56-90.243c11.86-33.246 81.206 52.206 84.343 85.055l-8.783 5.187z" fill="#DE8486"/><path d="M307.962 410.274c-22.24-18.711-42.024-42.873-54.705-59.848-13.738-18.39-22.33-32.54-22.415-32.68l.101-.061c.085.14 8.674 14.285 22.41 32.672 12.676 16.969 32.454 41.123 54.684 59.827l-.075.09z" fill="#122C64"/><path fill="#122C64" d="M252.952 349.938l-.067-.026-23.512-9.368.043-.11 23.445 9.342 4.556-24.904.116.02zM266.728 367.568l-.065-.021-25.62-8.301.038-.113 25.553 8.28 4.787-29.276.117.019zM282.648 385.865l-.067-.024-24.935-9.02.04-.112 24.868 8.996 4.748-28.296.117.02zM303.719 406.574l-.081-.036-22.614-9.914.047-.109 22.532 9.88.239-22.715h.118z"/><path d="M288.154 388.234s-11.536-31.204-11.106-43.836l4.334 5.146 12.85 40.314.316 2.624-4.45-1.062-1.945-3.186z" fill="#122C64"/><path d="M300.4 412.787s-41.698-95.665-13.518-116.919c28.182-21.254 39.143 88.248 23.706 117.415l-10.188-.496z" fill="#DE8486"/><path d="M305.451 413.053c-8.293-27.855-11.539-58.915-12.803-80.065-1.368-22.915-.766-39.457-.76-39.622l.118.004c-.007.165-.608 16.703.76 39.612 1.263 21.144 4.508 52.192 12.798 80.037l-.113.034z" fill="#122C64"/><path fill="#122C64" d="M292.663 332.412l-.042-.06-14.493-20.749.097-.067 14.452 20.69 17.495-18.3.085.082zM294.48 354.711l-.042-.054-16.84-21.015.094-.075 16.795 20.963 20.092-21.824.087.08zM297.72 378.747l-.042-.057-15.872-21.24.096-.072 15.829 21.184 19.519-21.027.087.08zM303.94 407.63l-.048-.074-13.441-20.714.099-.065 13.393 20.64 12.686-18.845.097.066z"/><path d="M253.1 372.365s44.468 17.25 61.06 32.666l-3.666 3.706-56.184-31.314 4.447.361-5.656-5.419z" fill="#122C64"/><path d="M308.889 416.182s-84.828-4.258-90.112-32.496c-5.284-28.238 78.497 3.434 94.164 25.249l-4.052 7.247z" fill="#DE8486"/><path d="M310.91 412.607c-23.308-4.045-47.12-12.93-62.995-19.67-17.197-7.302-29.037-13.731-29.154-13.796l.056-.103c.117.064 11.953 6.49 29.146 13.792 15.867 6.737 39.672 15.618 62.968 19.66l-.02.117z" fill="#122C64"/><path fill="#122C64" d="M227.076 395.776l-.018-.117 20.302-3.036-6.997-19.368.11-.04 7.046 19.502-.07.012zM242.947 404.144l-.024-.115 21.349-4.646-8.625-22.537.11-.042 8.675 22.665-.067.015zM261.824 409.7l-.022-.116 21.161-3.862-8.252-21.832.11-.042 8.302 21.964-.07.013zM286.377 414.046l-.014-.117 19.876-2.284-9.13-16.057.101-.058 9.221 16.211z"/><path fill="#FCFCFC" d="M360.757 148.114l-1.317 1.736-.173 2.173-1.737-1.318-2.172-.172 1.317-1.737.173-2.173 1.736 1.317zM394.768 116.806l-2.065 2.722-.272 3.407-2.723-2.066-3.407-.27 2.067-2.724.27-3.407 2.724 2.067zM399.407 11.951l-2.065 2.722-.272 3.407-2.723-2.067-3.407-.27 2.067-2.723.27-3.407 2.724 2.067zM335.703 291.942l-1.317 1.736-.173 2.174-1.737-1.318-2.172-.173 1.317-1.737.173-2.173 1.736 1.317zM114.322 92.912l-1.321 1.733-.179 2.173-1.732-1.32-2.173-.179 1.322-1.734.177-2.173 1.734 1.321z"/><g transform="translate(0 133.022)"><mask id="b" fill="#fff"><use xlink:href="#a"/></mask><path fill="#FCFCFC" mask="url(#b)" d="M8.417 2.502L6.363 5.207l-.27 3.388L3.388 6.54 0 6.273l2.055-2.708.268-3.387 2.706 2.054z"/></g><path fill="#FCFCFC" d="M251.531 363.792l-2.054 2.705-.269 3.388-2.707-2.055-3.386-.268 2.054-2.707.268-3.388 2.707 2.055zM110.487 370.288l-2.053 2.704-.27 3.388-2.707-2.055-3.386-.267 2.055-2.708.268-3.388 2.706 2.055zM14.103 278.277a3.99 3.99 0 1 1-7.978 0 3.99 3.99 0 0 1 7.978 0M397.412 218.654a2.448 2.448 0 1 1-4.896.001 2.448 2.448 0 0 1 4.896-.001M27.173 2.448a2.45 2.45 0 1 1-4.898 0 2.45 2.45 0 0 1 4.898 0M151.162 18.46a2.788 2.788 0 1 1-5.576 0 2.788 2.788 0 0 1 5.576 0"/><path d="M105.908 155.092h89.262v-23.511c0-5.315 4.309-9.624 9.624-9.624h87.15c5.315 0 9.624 4.309 9.624 9.624v158.816H110.383c-7.787 0-14.1-6.312-14.1-14.099V164.716c0-5.315 4.31-9.624 9.625-9.624" fill="#EFD456"/><path d="M207.116 255.684H188.26c-12.434 0-22.513-10.08-22.513-22.513v-18.857c0-12.434 10.08-22.513 22.513-22.513h18.857c12.434 0 22.514 10.079 22.514 22.513v18.857c0 12.434-10.08 22.513-22.514 22.513" fill="#FFF"/><path d="M208.288 217.88c0-6.04-4.897-10.938-10.938-10.938-6.04 0-10.936 4.897-10.936 10.938 0 4.521 2.745 8.402 6.66 10.067l-4.19 9.686h17.838l-4.227-10.103a10.932 10.932 0 0 0 5.793-9.65" fill="#021550"/><mask id="d" fill="#fff"><use xlink:href="#c"/></mask><path fill="#FFF" mask="url(#d)" d="M105.222 275.585h1.624v-81.874h-1.624zM105.222 186.59h1.624v-13.958h-1.624z"/><path d="M251.395 235.154a3.554 3.554 0 1 1 5.028 5.028 3.556 3.556 0 0 1-5.028-5.028m7.997 7.984a7.843 7.843 0 0 0-3.27-13.052c.018-.118.03-.237.03-.358l-.035-22.386a2.167 2.167 0 0 0-4.333.004v.424H247.8a1.424 1.424 0 0 0 0 2.846h3.983v3.864H247.8a1.424 1.424 0 0 0 0 2.847h3.983v12.41c0 .096.007.19.019.284a7.843 7.843 0 0 0-3.504 13.118 7.843 7.843 0 0 0 11.093 0" fill="#010101" mask="url(#d)"/><path d="M218.139 206.463v20.416c0 5.836-5.738 11.06-10.86 14.557-4.031 2.756-7.675 4.437-7.823 4.501h-.005s-18.691-8.62-18.691-19.058v-20.416l18.696-5.98 18.683 5.98z" fill="#A8D626" mask="url(#d)"/><path d="M199.454 200.482v45.456c.328-.137 18.687-8.624 18.687-19.06v-20.416l-18.687-5.98z" fill="#448E1B" mask="url(#d)"/><path fill="#FFF" mask="url(#d)" d="M188.004 221.679l9.517 9.727 15.58-15.413-4.043-3.706-11.37 11.455-6.147-5.39z"/><path d="M306.631 283.642s-17.268 128.319-17.329 147.354l10.891.534s25.622-108.946 31.972-114.65c0 0 2.627-.436 3.643 0 1.014.439-3.65 109.798-5.343 116.86l11.551.92s23.636-123.102 22.73-150.247c0 0-4.834-13.634-25.042-12.406-20.208 1.228-31.043-1.907-33.073 11.635" fill="#2A2B2A" mask="url(#d)"/><path d="M301.42 430.847c-3.47-.46-9.346-.634-12.834-.317a40.895 40.895 0 0 1-8.965 3.9c-.916.274-1.879.537-2.584 1.135-.704.598-1.048 1.653-.48 2.36.496.62 1.443.739 2.285.797 6.44.44 15.271.426 21.686-.248.385-.041.794-.093 1.086-.323.234-.185.357-.456.456-.723.804-2.147.562-4.598-.65-6.581M343.457 429.173s-11.646-.031-13.055.709c-1.408.74-2.85 7.435-.543 8.394 2.308.959 26.254-.957 26.254-.957s2.142-2.753-4.282-4.43c-6.424-1.677-7.428-1.669-8.374-3.716" fill="#07033B" mask="url(#d)"/><path d="M362.099 212.491c2.788 2.987 5.358 6.198 7.562 9.665 3.316 5.22 5.767 10.96 8.202 16.67 3.176 7.45 6.41 15.154 6.519 23.29.035 2.632-.285 5.346-1.53 7.646-1.167 2.16-3.061 3.797-5.004 5.25-3.978 2.971-8.843 5.467-13.65 4.411.946-2.703 2.183-5.719 4.808-6.694.79-.295 1.659-.373 2.404-.778.835-.454 1.424-1.27 1.91-2.105 3.109-5.332 2.883-12.527-.555-17.64-1.507-2.24-3.53-4.052-5.526-5.843-5.226-4.69-10.5-9.515-14.124-15.598-3.243-5.438-5.44-12.847-3.611-19.202 1.985-6.894 9.374-2.522 12.595.928" fill="#0ABC85" mask="url(#d)"/><path d="M249.585 249.474c-1.07-.366-2.194-.843-2.837-1.817-.559-.85-.656-1.928-.729-2.953-.034-.465-.05-.982.233-1.34.324-.407.901-.438 1.41-.437l3.16.009c.751.002 1.614-.05 2.072-.671.146-.2.235-.44.388-.633.384-.482 1.092-.55 1.664-.35.574.2 1.055.61 1.551.972a11.052 11.052 0 0 0 4.772 1.99c.383.059.78.102 1.124.293.493.275.802.816.996 1.366.487 1.38.39 3.27-.45 4.485-.76 1.102-1.85.832-3.049.822a32.679 32.679 0 0 1-10.305-1.736" fill="#FCE0D3" mask="url(#d)"/><path d="M323.455 224.43l-.907-12.103c-.1-1.316-.26-2.765-1.23-3.66-1.486-1.366-3.875-.635-5.648.328-7.259 3.943-12.736 10.428-18.059 16.743-5.323 6.315-10.86 12.764-18.178 16.595-5.406 2.828-10.076.819-15.867 1.013-.27.01-.599.042-.962.096-.014.076-.01.145-.032.223-.26.994-.5 3.662-.78 4.652-.087.547-.153 1.097-.25 1.643-.115.649-.187 1.506-.489 2.15 4.132.905 10.212.763 12.183.74 6.04-.068 12.055-1.134 17.807-2.955 10.03-3.175 19.24-8.566 27.693-14.827 1.623-1.202 3.282-2.511 4.127-4.345.893-1.936.752-4.168.592-6.293" fill="#0ABC85" mask="url(#d)"/><path d="M327.654 158.983c-4.156 3.51-5.74 8.535-6.433 13.428a49.14 49.14 0 0 0-.238 11.709c.383 3.876 1.293 7.88 4.04 11.162 2.745 3.28 7.721 5.66 12.42 4.932 5.365-.83 8.482-5.117 10.772-9.065 3.314-5.72 6.3-11.812 5.995-18.228-.29-6.077-4.166-10.91-9.386-15.238-4.898-4.06-12.906-2.3-17.17 1.3" fill="#FCE0D3" mask="url(#d)"/><path d="M367.549 296.473c.011-.048.033-.091.023-.147-3.961-24.52.886-52.355-7.687-75.931l-4.756-10.667s-5.413-8.352-25.52-6.117c-14.365 1.595-13.187 19.045-13.187 19.045l.095-.006c-.452 5.092-10.763 43.707-12.167 63.726l-.522 7.435c-.082 1.174-.968 3.365.632 4.403 1.116.724 10.037.723 11.446.78 4.27.172 8.591.15 12.864.052 15.202-.345 24.032 1.565 38.268-1.928.466-.115.61-.406.511-.645" fill="#06D79D" mask="url(#d)"/><path d="M333.896 239.564c-1.581-5.858-1.534-10.336-2.38-16.87-.78-6.045-1.727-11.991-2.906-17.68-.005-.02-.013-.022-.02-.036-.02-.355-.25-.56-.37-.18-1.112 3.55-2.424 6.369-4.036 8.674-.242.348-.184 1.165.077 1.366.88.678 2.768 1.67 3.365 3.5.832 2.543-.902 5.556-1.65 7.002-.143.277-.107.79 0 1.079 2.379 6.353 5.045 12.063 8.03 16.848.27.432.512-.274.44-.86.082-.158-.476-2.567-.55-2.843M343.996 212.904c-1.172 2.173-2.414 3.876-3.725 5.328-.236.262-.409 1.188-.167 1.745.754 1.74 1.53 3.126 2.402 4.282-2.292 7.002-4.63 13.78-7.435 19.248.82-11.434 1.774-22.828 3.13-33.871.4-3.258.581-6.535 2.043-5.698 1.101.627 2.318 3.309 3.328 4.75.145.207 1.485 1.822 1.48 2.112-.009.452-.922 1.855-1.056 2.103" fill="#006FD0" mask="url(#d)"/><path d="M334.699 219.998c-.038.007-.077.016-.115.02.038 0 .077-.015.115-.02" fill="#FFF" mask="url(#d)"/><path d="M331.53 214.54c-.43-1.285-1.237-3.064-1.057-4.713.123-1.12.603-1.668 1.14-1.684a6.016 6.016 0 0 1 2.846-.946c.683-.048 2.077-.413 2.52.946.413 1.27-.164 3.506-.43 4.651-.458 1.983-1.087 3.761-1.791 5.464-.07.166-.14.315-.21.463l.002.005c.491 2.475 1.959 8 2.538 13.268 1.418-10.507 3.426-26.373 3.426-26.373s-.624-5.505-12.293-.823c0 0 1.671 11.777 3.178 22.18.44-2.519 1.096-4.877 1.813-8.108-.675-1.046-1.257-3.058-1.683-4.33" fill="#FFF" mask="url(#d)"/><path d="M334.935 219.935c-.022.007-.038.018-.062.024a.396.396 0 0 0 .062-.024" fill="#FFF" mask="url(#d)"/><path d="M334.833 219.976c.015-.005.025-.012.04-.017a.757.757 0 0 1-.175.039c.045-.008.091-.01.135-.022" fill="#004161" mask="url(#d)"/><path d="M335.865 240.52c.223-1.255.68-4.498 1.223-8.525-.579-5.27-2.047-10.793-2.538-13.268 0-.003-.002-.003-.002-.003.07-.15.14-.3.21-.466.704-1.703 1.332-3.48 1.791-5.464.265-1.144.842-3.381.43-4.651-.443-1.358-1.838-.993-2.52-.945a6.005 6.005 0 0 0-2.846.946c-.537.016-1.018.564-1.14 1.684-.18 1.648.626 3.427 1.056 4.712.426 1.273 1.007 3.285 1.683 4.33-.718 3.232-1.374 5.589-1.814 8.109 1.166 8.05 2.232 15.276 2.346 15.584.13.347.451.948.84.936.038-.008.076-.03.114-.045.058-.021.115-.04.175-.092.023-.016.04-.041.061-.058.31-.33.637-1.13.931-2.784" fill="#07033B" mask="url(#d)"/><path d="M363.097 270.99c-.812-.602-1.644-1.214-2.604-1.528-.664-.216-1.365-.284-2.061-.308-1.033-.035-2.157.055-2.933.74-.6.53-.885 1.331-1.035 2.117a8.502 8.502 0 0 0 .167 3.862c.126.45.296.9.61 1.242.35.38.842.592 1.329.762 2.242.78 4.656.873 7.028.958 1.209.044 2.664-.04 3.263-1.092.215-.376.274-.817.33-1.246.068-.527.419-1.56.268-2.058-.144-.476-.696-.733-1.108-1.039l-3.254-2.41" fill="#FCE0D3" mask="url(#d)"/><path d="M321.222 172.41s-.005-6.114 2.352-12.229c0 0 1.049-3.11 0-4.833-2.268-3.718 21.563-14.692 30.743 3.426 9.18 18.117-4.451 29.415-4.451 29.415s.609-5.969-.044-8.059c-.653-2.089-3.526-3.134-3.526 0s-1.244.131-1.244.131-1.628-6.007 1.636-7.444c3.264-1.435 4.43-10.576-1.636-10.576-6.068 0-13.25 6.268-17.56 4.44 0 0-4.314-2.25-6.27 5.73" fill="#B97C00" mask="url(#d)"/><path d="M322.087 167.577s.774-5.49-2.73-6.876c0 0-4.317-2.025-2.249-8.367 0 0 .805-1.866 2.246-2.292 0 0 .707-.435.781 1.098.074 1.532 4.393 4.247 8.086 2.364l-6.134 14.073z" fill="#B97C00" mask="url(#d)"/></g></svg>