<svg width="120" height="35" xmlns="http://www.w3.org/2000/svg" xmlns:xlink="http://www.w3.org/1999/xlink"><defs><path id="a" d="M.01.021h67.924V34.93H.01z"/></defs><g fill="none" fill-rule="evenodd"><path d="M0 10.215v.088l20.205 9.492 20.277-9.524v-.024L20.205.723 0 10.215zm7.284.044l12.922-6.07 12.922 6.07-12.923 6.07-12.92-6.07zm12.921 13.223L0 14.132v3.458l20.205 9.372 20.277-9.404V14.1l-20.277 9.382zm0 7.014L0 21.145v3.458l20.205 9.373 20.277-9.405v-3.458l-20.277 9.383z" fill="#BDBAFA"/><g transform="translate(52.048)"><mask id="b" fill="#fff"><use xlink:href="#a"/></mask><path d="M63.296 17.46a5.856 5.856 0 0 0-1.562-4.03 5.247 5.247 0 0 0-1.69-1.208 4.962 4.962 0 0 0-2.062-.436c-.73 0-1.417.145-2.061.436a5.246 5.246 0 0 0-1.691 1.208 5.857 5.857 0 0 0-1.562 4.03 5.857 5.857 0 0 0 1.562 4.029 5.246 5.246 0 0 0 1.69 1.208c.645.29 1.332.435 2.062.435.73 0 1.417-.145 2.061-.435a5.247 5.247 0 0 0 1.691-1.208 5.856 5.856 0 0 0 1.562-4.03zm4.638 0c0 1.396-.258 2.69-.773 3.883a9.468 9.468 0 0 1-2.126 3.095c-.902.87-1.96 1.558-3.172 2.063a9.996 9.996 0 0 1-3.881.757 9.878 9.878 0 0 1-3.865-.757 10.021 10.021 0 0 1-3.156-2.08 9.652 9.652 0 0 1-2.126-3.11c-.515-1.192-.773-2.476-.773-3.852a9.36 9.36 0 0 1 .79-3.82 10.063 10.063 0 0 1 2.141-3.126 9.883 9.883 0 0 1 3.156-2.095 9.796 9.796 0 0 1 3.833-.757c1.374 0 2.668.252 3.88.757a10.115 10.115 0 0 1 3.173 2.063 9.426 9.426 0 0 1 2.126 3.11 9.722 9.722 0 0 1 .773 3.868zm-21.482 9.218a6.217 6.217 0 0 1-1.24.42c-.462.107-.94.16-1.433.16a7.114 7.114 0 0 1-1.98-.274 4.34 4.34 0 0 1-1.66-.886c-.472-.408-.848-.94-1.127-1.596-.279-.655-.418-1.445-.418-2.369V.021h4.734v21.306c0 .774.156 1.306.467 1.596.311.29.682.435 1.111.435.537 0 1.052-.161 1.546-.483v3.803zM36.5 8.112l-8.374 22.144c-.622 1.655-1.438 2.847-2.447 3.578-1.01.73-2.212 1.096-3.607 1.096a5.744 5.744 0 0 1-1.45-.194l-1.546-4.319c.365.172.741.306 1.128.403a4.52 4.52 0 0 0 1.095.145 4.05 4.05 0 0 0 1.996-.5c.602-.333 1.063-.95 1.385-1.853l.644-1.87-7.182-18.63H23.2l4.283 11.99 4.026-11.99H36.5zM17.015 5.308H4.905v5.995h11.95v4.061H4.904v11.41H.01V1.022h17.005v4.287z" fill="#000" mask="url(#b)"/></g></g></svg>